<?xml version="1.0" encoding="utf-8"?>
<!-- Generator: Adobe Illustrator 21.1.0, SVG Export Plug-In . SVG Version: 6.00 Build 0)  -->
<svg version="1.1" id="Слой_1" xmlns="http://www.w3.org/2000/svg" xmlns:xlink="http://www.w3.org/1999/xlink" x="0px" y="0px"
	 viewBox="0 0 512 512" style="enable-background:new 0 0 512 512;" xml:space="preserve">
<style type="text/css">
	.st0{fill:#FAFAFA;}
</style>
<g id="Cloud_server-2">
	<path class="st0" d="M88,280v-16c-30.9,0.1-56.1-24.9-56.2-55.8c-0.1-25.8,17.4-48.2,42.4-54.5h0.1l0,0c13.6-3.4,28-1.5,40.4,5.1
		l7.6-14.1c-12.4-6.6-26.5-9.5-40.5-8.4c7.4-32.8,36.5-56.2,70.2-56.3c10.5,0,21,2.3,30.5,6.8h0.1l0,0c22.9,10.8,38.5,32.8,41.1,58
		l15.9-1.6c-3-28.3-19.4-53.5-44.2-67.5c11.2-33.5,47.4-51.6,80.9-40.4c25.5,8.5,42.9,32.1,43.7,58.9c-11.1,4.3-21.2,10.9-29.8,19.2
		l11.2,11.4c8.1-8,18-14,28.9-17.5l0,0c37.9-11.9,78.4,9.2,90.3,47.1c1.7,5.3,2.7,10.7,3.1,16.2c-9.8,2.9-18.6,8.5-25.4,16.1
		l11.9,10.7c6-6.7,14.2-11.2,23.1-12.7h0.2c2.2-0.4,4.4-0.6,6.6-0.6c22.1,0,40,17.9,40,40s-17.9,40-40,40h-16v16h16
		c30.9,0,56-25.1,56-56s-25.1-56-56-56h-0.4c-4.5-48.5-47.4-84.1-95.9-79.6c-2.7,0.2-5.4,0.6-8.1,1.1c-3.6-44-42.2-76.9-86.2-73.3
		c-31.3,2.5-58.2,23.1-68.8,52.6c-9.2-3.2-19-4.8-28.7-4.8c-43.8,0.2-80.9,32.4-87.1,75.8C27.2,152.5,6.9,193.3,19.6,231
		C29.5,260.3,57,280.1,88,280z"/>
	<rect x="96" y="264" class="st0" width="16" height="16"/>
	<rect x="400" y="264" class="st0" width="16" height="16"/>
	<path class="st0" d="M264,433.1V408h104c13.3,0,24-10.7,24-24V176c0-13.3-10.7-24-24-24H144c-13.3,0-24,10.7-24,24v208
		c0,13.3,10.7,24,24,24h104v25.1c-11.2,2.9-19.9,11.7-22.9,22.9H16v16h209.1c4.3,17,21.7,27.3,38.7,23c11.3-2.9,20.1-11.7,23-23H496
		v-16H286.9C283.9,444.8,275.2,436.1,264,433.1z M136,176c0-4.4,3.6-8,8-8h224c4.4,0,8,3.6,8,8v56H136V176z M136,248h240v64H136V248
		z M136,384v-56h240v56c0,4.4-3.6,8-8,8H144C139.6,392,136,388.4,136,384z M256,480c-8.8,0-16-7.2-16-16s7.2-16,16-16
		c8.8,0,16,7.2,16,16S264.8,480,256,480z"/>
	<path class="st0" d="M272,224h96v-48h-96V224z M288,192h64v16h-64V192z"/>
	<path class="st0" d="M272,304h96v-48h-96V304z M288,272h64v16h-64V272z"/>
	<path class="st0" d="M368,336h-96v48h96V336z M352,368h-64v-16h64V368z"/>
	<rect x="152" y="176" class="st0" width="16" height="16"/>
	<rect x="152" y="208" class="st0" width="16" height="16"/>
	<rect x="176" y="176" class="st0" width="16" height="16"/>
	<rect x="176" y="208" class="st0" width="16" height="16"/>
	<rect x="200" y="176" class="st0" width="16" height="16"/>
	<rect x="200" y="208" class="st0" width="16" height="16"/>
	<rect x="224" y="176" class="st0" width="16" height="16"/>
	<rect x="224" y="208" class="st0" width="16" height="16"/>
	<rect x="152" y="256" class="st0" width="16" height="16"/>
	<rect x="152" y="288" class="st0" width="16" height="16"/>
	<rect x="176" y="256" class="st0" width="16" height="16"/>
	<rect x="176" y="288" class="st0" width="16" height="16"/>
	<rect x="200" y="256" class="st0" width="16" height="16"/>
	<rect x="200" y="288" class="st0" width="16" height="16"/>
	<rect x="224" y="256" class="st0" width="16" height="16"/>
	<rect x="224" y="288" class="st0" width="16" height="16"/>
	<rect x="152" y="336" class="st0" width="16" height="16"/>
	<rect x="152" y="368" class="st0" width="16" height="16"/>
	<rect x="176" y="336" class="st0" width="16" height="16"/>
	<rect x="176" y="368" class="st0" width="16" height="16"/>
	<rect x="200" y="336" class="st0" width="16" height="16"/>
	<rect x="200" y="368" class="st0" width="16" height="16"/>
	<rect x="224" y="336" class="st0" width="16" height="16"/>
	<rect x="224" y="368" class="st0" width="16" height="16"/>
</g>
</svg>
