<?xml version="1.0" encoding="utf-8"?>
<!-- Generator: Adobe Illustrator 21.1.0, SVG Export Plug-In . SVG Version: 6.00 Build 0)  -->
<svg version="1.1" id="Слой_1" xmlns="http://www.w3.org/2000/svg" xmlns:xlink="http://www.w3.org/1999/xlink" x="0px" y="0px"
	 viewBox="0 0 64 80" style="enable-background:new 0 0 64 80;" xml:space="preserve">
<style type="text/css">
	.st0{fill:#FAFAFA;}
</style>
<title>design-Sketching-sketch-Graphic design</title>
<g>
	<path class="st0" d="M16,39c-0.6,0-1,0.4-1,1v5c0,0.6,0.4,1,1,1c0.6,0,1-0.4,1-1v-5C17,39.4,16.6,39,16,39z"/>
	<path class="st0" d="M61,13h-3V3c0-0.6-0.4-1-1-1h-6c-0.6,0-1,0.4-1,1v10H3c-0.6,0-1,0.4-1,1v36c0,0.6,0.4,1,1,1h5v3
		c0,4.4,3.6,8,8,8s8-3.6,8-8v-3h37c0.6,0,1-0.4,1-1V14C62,13.4,61.6,13,61,13z M56,28h-4V8h4V28z M55.5,30L54,33.5L52.5,30H55.5z
		 M52,4h4v2h-4V4z M7.6,15L4,18.6V15H7.6z M9,16.4V20H5.4L9,16.4z M22,54c0,3.3-2.7,6-6,6s-6-2.7-6-6V42c0-3.3,2.7-6,6-6s6,2.7,6,6
		V54z M60,49H24v-7c0-4.4-3.6-8-8-8s-8,3.6-8,8v7H4V22h6c0.6,0,1-0.4,1-1v-6h39v14c0,0,0,0,0,0c0,0.1,0,0.2,0.1,0.3v0l0,0l3,7
		c0.2,0.5,0.8,0.7,1.3,0.5c0.2-0.1,0.4-0.3,0.5-0.5l3-7l0,0v0c0-0.1,0.1-0.2,0.1-0.3c0,0,0,0,0,0V15h2L60,49z"/>
	<path class="st0" d="M57,45h-2c-0.6,0-1,0.4-1,1s0.4,1,1,1h2c0.6,0,1-0.4,1-1S57.6,45,57,45z"/>
	<path class="st0" d="M51,45h-2c-0.6,0-1,0.4-1,1s0.4,1,1,1h2c0.6,0,1-0.4,1-1S51.6,45,51,45z"/>
	<path class="st0" d="M42.8,20.4c-0.3-0.4-1-0.5-1.4-0.1L31,28.7l-9.4-8.4c-0.3-0.3-0.9-0.3-1.2-0.1l-13,9c-0.5,0.3-0.6,0.9-0.3,1.4
		c0.3,0.5,0.9,0.6,1.4,0.3c0,0,0,0,0,0l12.4-8.5l9.4,8.5c0.4,0.3,0.9,0.3,1.3,0l11-9C43.1,21.4,43.1,20.8,42.8,20.4
		C42.8,20.4,42.8,20.4,42.8,20.4z"/>
	<path class="st0" d="M39.8,33.5c-0.3-0.5-1-0.6-1.4-0.3c-0.1,0.1-0.2,0.2-0.3,0.3l-5,8c-0.3,0.5-0.2,1.1,0.3,1.4
		c0.2,0.1,0.3,0.2,0.5,0.2h10c0.6,0,1-0.4,1-1c0-0.2-0.1-0.4-0.2-0.5L39.8,33.5z M35.8,41l3.2-5.1l3.2,5.1H35.8z"/>
</g>
</svg>
