<?xml version="1.0" encoding="utf-8"?>
<!-- Generator: Adobe Illustrator 21.1.0, SVG Export Plug-In . SVG Version: 6.00 Build 0)  -->
<svg version="1.1" id="Слой_1" xmlns="http://www.w3.org/2000/svg" xmlns:xlink="http://www.w3.org/1999/xlink" x="0px" y="0px"
	 viewBox="0 0 100 125" style="enable-background:new 0 0 100 125;" xml:space="preserve">
<style type="text/css">
	.st0{fill:none;stroke:#FAFAFA;stroke-linecap:round;stroke-linejoin:round;stroke-miterlimit:10;}
</style>
<path class="st0" d="M10,10v9.4h7.1l1.8-3.7c0.3-0.6,1.1-1.1,1.7-1.1h11.8c0.6,0,1.4,0.5,1.7,1.1l1.8,3.7H50V10H10z"/>
<path class="st0" d="M35.9,19.4L35.9,19.4l-1.8-3.7c-0.3-0.6-1.1-1.1-1.7-1.1H20.6c-0.6,0-1.4,0.5-1.7,1.1l-1.8,3.7l0,0H10V90h40
	V19.4H35.9z"/>
<rect x="10" y="26.5" class="st0" width="7.1" height="63.5"/>
<rect x="10" y="26.5" class="st0" width="7.1" height="7.1"/>
<rect x="21.8" y="28.2" class="st0" width="9.4" height="3.5"/>
<rect x="35.9" y="28.2" class="st0" width="14.1" height="3.5"/>
<rect x="31.2" y="35.3" class="st0" width="18.8" height="3.5"/>
<rect x="31.2" y="42.4" class="st0" width="4.7" height="3.5"/>
<rect x="40.6" y="42.4" class="st0" width="9.4" height="3.5"/>
<rect x="31.2" y="49.4" class="st0" width="18.8" height="3.5"/>
<rect x="21.8" y="56.5" class="st0" width="4.7" height="3.5"/>
<rect x="31.2" y="56.5" class="st0" width="18.8" height="3.5"/>
<rect x="26.5" y="63.5" class="st0" width="23.5" height="3.5"/>
<rect x="26.5" y="70.6" class="st0" width="4.7" height="3.5"/>
<rect x="35.9" y="70.6" class="st0" width="14.1" height="3.5"/>
<rect x="31.2" y="77.6" class="st0" width="18.8" height="3.5"/>
<rect x="10" y="33.5" class="st0" width="7.1" height="7.1"/>
<rect x="10" y="40.6" class="st0" width="7.1" height="7.1"/>
<rect x="10" y="47.6" class="st0" width="7.1" height="7.1"/>
<rect x="10" y="54.7" class="st0" width="7.1" height="7.1"/>
<rect x="10" y="61.8" class="st0" width="7.1" height="7.1"/>
<rect x="10" y="68.8" class="st0" width="7.1" height="7.1"/>
<rect x="10" y="75.9" class="st0" width="7.1" height="7.1"/>
<rect x="10" y="82.9" class="st0" width="7.1" height="7.1"/>
<path class="st0" d="M45.8,15.8c-0.3-0.6-1.1-1.1-1.7-1.1H32.4c0.6,0,1.4,0.5,1.7,1.1l1.8,3.7h2.3h9.4L45.8,15.8z"/>
<rect x="50" y="19.4" class="st0" width="40" height="70.6"/>
<rect x="70" y="66.5" class="st0" width="15.3" height="18.8"/>
<rect x="50" y="47.6" class="st0" width="15.3" height="37.6"/>
<rect x="50" y="24.1" class="st0" width="35.3" height="18.8"/>
<rect x="50" y="10" class="st0" width="40" height="9.4"/>
<rect x="83.5" y="12.9" class="st0" width="3.5" height="3.5"/>
<rect x="77.6" y="12.9" class="st0" width="3.5" height="3.5"/>
<rect x="71.8" y="12.9" class="st0" width="3.5" height="3.5"/>
<path class="st0" d="M70,47.6h15.3H70z"/>
<path class="st0" d="M70,52.3h15.3H70z"/>
<path class="st0" d="M70,57.1h15.3H70z"/>
<path class="st0" d="M70,61.8h15.3H70z"/>
</svg>
